<?xml version="1.0" encoding="UTF-8" standalone="no"?>
<!DOCTYPE svg PUBLIC "-//W3C//DTD SVG 1.1//EN" "http://www.w3.org/Graphics/SVG/1.1/DTD/svg11.dtd">
<svg version="1.1" xmlns="http://www.w3.org/2000/svg" xmlns:xlink="http://www.w3.org/1999/xlink" preserveAspectRatio="xMidYMid meet" viewBox="0 0 640 640" width="640" height="640"><defs><path d="M295.25 291L250 364L340.5 364L431 364L385.75 291L340.5 218L295.25 291Z" id="i1g9WXKSiB"></path><path d="M417.22 204C443.7 246.34 430.82 302.22 388.47 328.7C346.12 355.19 290.24 342.31 263.76 299.97C237.28 257.63 250.16 201.75 292.51 175.27C334.86 148.78 390.74 161.66 417.22 204Z" id="b3y5X1lqV3"></path><linearGradient id="gradientalxKggb81" gradientUnits="userSpaceOnUse" x1="427.51" y1="225.27" x2="292.51" y2="328.7"><stop style="stop-color: #ffffff;stop-opacity: 1" offset="0%"></stop><stop style="stop-color: #010000;stop-opacity: 1" offset="100%"></stop></linearGradient></defs><g><g><g><use xlink:href="#i1g9WXKSiB" opacity="1" fill="#594600" fill-opacity="1"></use></g><g><g><filter id="shadow4741913" x="241" y="152.5" width="199.99" height="199.97" filterUnits="userSpaceOnUse" primitiveUnits="userSpaceOnUse"><feFlood></feFlood><feComposite in2="SourceAlpha" operator="in"></feComposite><feGaussianBlur stdDeviation="1"></feGaussianBlur><feOffset dx="1" dy="1" result="afterOffset"></feOffset><feFlood flood-color="#ffffff" flood-opacity="1"></feFlood><feComposite in2="afterOffset" operator="in"></feComposite><feMorphology operator="dilate" radius="1"></feMorphology><feComposite in2="SourceAlpha" operator="out"></feComposite></filter><path d="M417.22 204C443.7 246.34 430.82 302.22 388.47 328.7C346.12 355.19 290.24 342.31 263.76 299.97C237.28 257.63 250.16 201.75 292.51 175.27C334.86 148.78 390.74 161.66 417.22 204Z" id="cxw8Eboih" fill="white" fill-opacity="1" filter="url(#shadow4741913)"></path></g><use xlink:href="#b3y5X1lqV3" opacity="1" fill="url(#gradientalxKggb81)"></use><g><use xlink:href="#b3y5X1lqV3" opacity="1" fill-opacity="0" stroke="#ffffff" stroke-width="1" stroke-opacity="1"></use></g></g></g></g></svg>